<?xml version="1.0" encoding="utf-8"?>
<!-- Generator: Adobe Illustrator 17.1.0, SVG Export Plug-In . SVG Version: 6.00 Build 0)  -->
<!DOCTYPE svg PUBLIC "-//W3C//DTD SVG 1.1//EN" "http://www.w3.org/Graphics/SVG/1.1/DTD/svg11.dtd">
<svg version="1.1" id="レイヤー_1" xmlns="http://www.w3.org/2000/svg" xmlns:xlink="http://www.w3.org/1999/xlink" x="0px"
	 y="0px" viewBox="0 0 30 24" enable-background="new 0 0 30 24" xml:space="preserve">
<g>
	<path fill="#FFFFFF" d="M21.8,5.9c-0.6-3.3-3.5-5.9-7-5.9c-3.5,0-6.4,2.5-7,5.9L1.2,5.7c0,0,0.8,3,1.9,4.6c1.6,2.4,4.3,3,4.3,3
		l1.7,1.5l1.6-1.5l1.6,1.6l1.9-1.7l1.7,1.7l1.6-1.6l1.7,1.6l1.6-1.5l1.6,1.4c0.1-0.1-0.2-1.2,0-1.3c1.5-0.5,3.5-1.3,4.6-3.1
		c1.1-1.7,1.9-4.6,1.9-4.6L21.8,5.9z"/>
	<g>
		<path fill="#666666" d="M10.5,8c-0.2-0.2-0.3-0.6-0.3-1c0-0.5,0.1-0.8,0.3-1c0.2-0.2,0.4-0.3,0.7-0.3s0.5,0.1,0.7,0.3
			c0.2,0.2,0.3,0.6,0.3,1c0,0.5-0.1,0.8-0.3,1c-0.2,0.2-0.4,0.3-0.7,0.3C10.9,8.2,10.6,8.1,10.5,8z M10.7,6.9c0,0.6,0.2,0.8,0.5,0.8
			s0.5-0.3,0.5-0.8c0-0.6-0.2-0.8-0.5-0.8S10.7,6.3,10.7,6.9z"/>
		<path fill="#666666" d="M18,8c-0.2-0.2-0.3-0.6-0.3-1c0-0.5,0.1-0.8,0.3-1c0.2-0.2,0.4-0.3,0.7-0.3c0.3,0,0.5,0.1,0.7,0.3
			c0.2,0.2,0.3,0.6,0.3,1c0,0.5-0.1,0.8-0.3,1c-0.2,0.2-0.4,0.3-0.7,0.3C18.4,8.2,18.1,8.1,18,8z M18.2,6.9c0,0.6,0.2,0.8,0.5,0.8
			c0.3,0,0.5-0.3,0.5-0.8c0-0.6-0.2-0.8-0.5-0.8C18.4,6.1,18.2,6.3,18.2,6.9z"/>
		<circle fill="#F29600" cx="15" cy="7.8" r="2.2"/>
		<path opacity="0.5" fill="#666666" d="M16.6,8.1h-3.2C13.2,8.1,13,8,13,7.8s0.2-0.4,0.4-0.4h3.2c0.2,0,0.4,0.2,0.4,0.4
			S16.8,8.1,16.6,8.1z"/>
	</g>
	<path fill="#FFFFFF" d="M22.6,15.7l-1.8-1.8l-1.7,1.7L17.5,14l-1.7,1.7L14.1,14l-1.7,1.7L10.7,14l-1.7,1.7L7.2,14l-1.7,1.6
		c0,5.5,4.1,8.2,9.2,8.2c5.1,0,9.2-2.9,9.2-8.2c0-0.4,0-0.8-0.1-1.3L22.6,15.7z"/>
</g>
</svg>
