<?xml version="1.0" encoding="utf-8"?>
<!-- Generator: Adobe Illustrator 17.1.0, SVG Export Plug-In . SVG Version: 6.00 Build 0)  -->
<!DOCTYPE svg PUBLIC "-//W3C//DTD SVG 1.1//EN" "http://www.w3.org/Graphics/SVG/1.1/DTD/svg11.dtd">
<svg version="1.1" id="レイヤー_1" xmlns="http://www.w3.org/2000/svg" xmlns:xlink="http://www.w3.org/1999/xlink" x="0px"
	 y="0px" viewBox="0 0 24 24" enable-background="new 0 0 24 24" xml:space="preserve">
<g>
	<path fill="#FFFFFF" d="M4.7,12.2l1.7,1.7l1.7-1.7l1.7,1.7l1.7-1.7l1.7,1.7l1.7-1.7l1.7,1.7l1.7-1.7l1.7,1.7l1.2-1.1
		c-1-5.4-4.7-11-9.1-11c-4.7,0-8.6,6.3-9.3,12L4.7,12.2z"/>
	<path fill="#FFFFFF" d="M20.4,15.7L18.6,14l-1.7,1.7L15.1,14l-1.7,1.7L11.7,14l-1.7,1.7L8.2,14l-1.7,1.7L4.7,14L3,15.7
		c0,5.6,4.2,8.3,9.4,8.3c5.2,0,9.4-2.9,9.4-8.4c0-0.4,0-0.8-0.1-1.3L20.4,15.7z"/>
</g>
</svg>
