<?xml version="1.0" encoding="utf-8"?>
<!-- Generator: Adobe Illustrator 17.1.0, SVG Export Plug-In . SVG Version: 6.00 Build 0)  -->
<!DOCTYPE svg PUBLIC "-//W3C//DTD SVG 1.1//EN" "http://www.w3.org/Graphics/SVG/1.1/DTD/svg11.dtd">
<svg version="1.1" id="レイヤー_1" xmlns="http://www.w3.org/2000/svg" xmlns:xlink="http://www.w3.org/1999/xlink" x="0px"
	 y="0px" viewBox="0 0 72 60" enable-background="new 0 0 72 60" xml:space="preserve">
<g>
	<circle fill="#FFFFFF" cx="35.7" cy="25.8" r="24.5"/>
	<g>
		<path fill="#666666" d="M20.7,28.8c-0.7-0.8-1.2-2-1.2-3.6c0-1.6,0.4-2.9,1.2-3.6c0.6-0.6,1.4-1,2.4-1c1,0,1.8,0.3,2.4,1
			c0.8,0.8,1.2,2,1.2,3.6c0,1.6-0.4,2.9-1.2,3.6c-0.6,0.6-1.5,1-2.4,1C22.2,29.8,21.3,29.4,20.7,28.8z M21.5,25.2
			c0,1.9,0.5,2.9,1.6,2.9c1.1,0,1.6-1,1.6-2.9c0-1.9-0.5-2.9-1.6-2.9C22.1,22.3,21.5,23.2,21.5,25.2z"/>
		<path fill="#666666" d="M46.7,28.8c-0.7-0.8-1.2-2-1.2-3.6c0-1.6,0.4-2.9,1.2-3.6c0.6-0.6,1.4-1,2.4-1c1,0,1.8,0.3,2.4,1
			c0.8,0.8,1.2,2,1.2,3.6c0,1.6-0.4,2.9-1.2,3.6c-0.6,0.6-1.5,1-2.4,1C48.1,29.8,47.3,29.4,46.7,28.8z M47.5,25.2
			c0,1.9,0.5,2.9,1.6,2.9c1.1,0,1.6-1,1.6-2.9c0-1.9-0.5-2.9-1.6-2.9C48,22.3,47.5,23.2,47.5,25.2z"/>
		<circle fill="#E79012" cx="36.3" cy="28.2" r="7.8"/>
		<path opacity="0.5" fill="#666666" d="M41.8,29.5h-11c-0.7,0-1.2-0.6-1.2-1.2s0.6-1.2,1.2-1.2h11c0.7,0,1.2,0.6,1.2,1.2
			S42.5,29.5,41.8,29.5z"/>
	</g>
</g>
<g>
	<path fill="#FFFFFF" d="M48.3,56.2l2-6.1l12.6-12.6l4.1,4.1L54.4,54.2L48.3,56.2z M52.5,50.3c0,0.1,0,0.2,0.1,0.3
		c0.1,0.1,0.2,0.1,0.3,0.1c0.1,0,0.2,0,0.3-0.1l10-10c0.2-0.2,0.2-0.4,0-0.6c-0.1-0.1-0.2-0.1-0.3-0.1s-0.2,0-0.3,0.1l-10,10
		C52.6,50,52.5,50.1,52.5,50.3z M64.4,36.1l1.7-1.7c0.3-0.3,0.7-0.5,1.2-0.5c0.5,0,0.9,0.2,1.2,0.5l0.8,0.8l0.8,0.8
		c0.3,0.3,0.5,0.7,0.5,1.2s-0.2,0.9-0.5,1.2l-1.7,1.7L64.4,36.1z"/>
</g>
</svg>
